<?xml version="1.0" encoding="UTF-8" standalone="no" ?>
<!DOCTYPE svg PUBLIC "-//W3C//DTD SVG 1.1//EN" "http://www.w3.org/Graphics/SVG/1.1/DTD/svg11.dtd">
<svg xmlns="http://www.w3.org/2000/svg" xmlns:xlink="http://www.w3.org/1999/xlink" version="1.1" width="420.1638958740234" height="148.1092" xml:space="preserve">
<desc>Created with Fabric.js 1.6.0-rc.1</desc>
<defs></defs>
<g style="stroke: none; stroke-width: 1; stroke-dasharray: none; stroke-linecap: butt; stroke-linejoin: miter; stroke-miterlimit: 10; fill: none; fill-rule: nonzero; opacity: 1;" transform="translate(10 28.46999999999997) scale(0.51 0.51)" >
  <path d="M 235.733 161.879 c 0 6.865 -5.565 12.43 -12.43 12.43 H 95.434 c -6.865 0 -12.43 -5.564 -12.43 -12.43 V 12.429 C 83.004 5.565 88.568 0 95.434 0 h 127.869 c 6.865 0 12.43 5.564 12.43 12.429 v 149.45 z" style="stroke: none; stroke-width: 1; stroke-dasharray: none; stroke-linecap: butt; stroke-linejoin: miter; stroke-miterlimit: 10; fill: #f02c06; fill-rule: nonzero; opacity: 1;" transform="" stroke-linecap="round" />
  <path d="M 180.123 88.239 l -37.355 37.306 v 35.613 l 73.014 -72.919 l -73.014 -72.917 v 35.612 z" style="stroke: none; stroke-width: 1; stroke-dasharray: none; stroke-linecap: butt; stroke-linejoin: miter; stroke-miterlimit: 10; fill: #fffff4; fill-rule: nonzero; opacity: 1;" transform="" stroke-linecap="round" />
  <path d="M 43.162 71.383 h 92.978 l -20.403 -18.26 H 43.162 z" style="stroke: none; stroke-width: 1; stroke-dasharray: none; stroke-linecap: butt; stroke-linejoin: miter; stroke-miterlimit: 10; fill: #e8e0d2; fill-rule: nonzero; opacity: 1;" transform="" stroke-linecap="round" />
  <path d="M 0 96.286 h 142.294 l 9.675 -8.603 l -10.73 -9.659 H 0 z" style="stroke: none; stroke-width: 1; stroke-dasharray: none; stroke-linecap: butt; stroke-linejoin: miter; stroke-miterlimit: 10; fill: #fffff4; fill-rule: nonzero; opacity: 1;" transform="" stroke-linecap="round" />
  <path d="M 114.613 124.506 h 2.179 l 20.401 -21.581 H 34.862 v 21.581 z" style="stroke: none; stroke-width: 1; stroke-dasharray: none; stroke-linecap: butt; stroke-linejoin: miter; stroke-miterlimit: 10; fill: #e8e0d2; fill-rule: nonzero; opacity: 1;" transform="" stroke-linecap="round" />
</g>
  <g transform="translate(273.77 83.39) scale(1.87 1.31)">
   <text font-family="Impossible - 0" font-size="40" font-style="italic" font-weight="normal" style="stroke: none; stroke-width: 1; stroke-dasharray: none; stroke-linecap: butt; stroke-linejoin: miter; stroke-miterlimit: 10; fill: #000000; fill-rule: nonzero; opacity: 1;" ><tspan x="-73.18" y="8.98" style="stroke: none; stroke-width: 0; stroke-dasharray: none; stroke-linecap: butt; stroke-linejoin: miter; stroke-miterlimit: 4; fill: #000000; fill-rule: ; opacity: 1;">F</tspan><tspan x="-61.82" y="8.98" style="stroke: none; stroke-width: 0; stroke-dasharray: none; stroke-linecap: butt; stroke-linejoin: miter; stroke-miterlimit: 4; fill: #000000; fill-rule: ; opacity: 1;">5</tspan><tspan x="-46.54" y="8.98" style="stroke: none; stroke-width: 0; stroke-dasharray: none; stroke-linecap: butt; stroke-linejoin: miter; stroke-miterlimit: 4; fill: #000000; fill-rule: ; opacity: 1;"> </tspan><tspan x="-38.9" y="8.98" style="stroke: none; stroke-width: 0; stroke-dasharray: none; stroke-linecap: butt; stroke-linejoin: miter; stroke-miterlimit: 4; fill: #000000; fill-rule: ; opacity: 1;">T</tspan><tspan x="-27.18" y="8.98" style="stroke: none; stroke-width: 0; stroke-dasharray: none; stroke-linecap: butt; stroke-linejoin: miter; stroke-miterlimit: 4; fill: #000000; fill-rule: ; opacity: 1;">r</tspan><tspan x="-14.54" y="8.98" style="stroke: none; stroke-width: 0; stroke-dasharray: none; stroke-linecap: butt; stroke-linejoin: miter; stroke-miterlimit: 4; fill: #000000; fill-rule: ; opacity: 1;">a</tspan><tspan x="-1.3" y="8.98" style="stroke: none; stroke-width: 0; stroke-dasharray: none; stroke-linecap: butt; stroke-linejoin: miter; stroke-miterlimit: 4; fill: #000000; fill-rule: ; opacity: 1;">n</tspan><tspan x="12.38" y="8.98" style="stroke: none; stroke-width: 0; stroke-dasharray: none; stroke-linecap: butt; stroke-linejoin: miter; stroke-miterlimit: 4; fill: #000000; fill-rule: ; opacity: 1;">s</tspan><tspan x="25.46" y="8.98" style="stroke: none; stroke-width: 0; stroke-dasharray: none; stroke-linecap: butt; stroke-linejoin: miter; stroke-miterlimit: 4; fill: #000000; fill-rule: ; opacity: 1;">p</tspan><tspan x="38.86" y="8.98" style="stroke: none; stroke-width: 0; stroke-dasharray: none; stroke-linecap: butt; stroke-linejoin: miter; stroke-miterlimit: 4; fill: #000000; fill-rule: ; opacity: 1;">o</tspan><tspan x="51.98" y="8.98" style="stroke: none; stroke-width: 0; stroke-dasharray: none; stroke-linecap: butt; stroke-linejoin: miter; stroke-miterlimit: 4; fill: #000000; fill-rule: ; opacity: 1;">r</tspan><tspan x="64.62" y="8.98" style="stroke: none; stroke-width: 0; stroke-dasharray: none; stroke-linecap: butt; stroke-linejoin: miter; stroke-miterlimit: 4; fill: #000000; fill-rule: ; opacity: 1;">t</tspan></text>
 </g>
  <g transform="translate(358.27 122.68) scale(0.6 0.6)">
   <text font-family="Youthanasia" font-size="40" font-style="italic" font-weight="normal" style="stroke: none; stroke-width: 1; stroke-dasharray: none; stroke-linecap: butt; stroke-linejoin: miter; stroke-miterlimit: 10; fill: #000000; fill-rule: nonzero; opacity: 1;" ><tspan x="-86.99" y="8.98" style="stroke: none; stroke-width: 0; stroke-dasharray: none; stroke-linecap: butt; stroke-linejoin: miter; stroke-miterlimit: 4; fill: #000000; fill-rule: ; opacity: 1;">Ö</tspan><tspan x="-66.28" y="8.98" style="stroke: none; stroke-width: 0; stroke-dasharray: none; stroke-linecap: butt; stroke-linejoin: miter; stroke-miterlimit: 4; fill: #000000; fill-rule: ; opacity: 1;">s</tspan><tspan x="-46.75" y="8.98" style="stroke: none; stroke-width: 0; stroke-dasharray: none; stroke-linecap: butt; stroke-linejoin: miter; stroke-miterlimit: 4; fill: #000000; fill-rule: ; opacity: 1;">t</tspan><tspan x="-33.6" y="8.98" style="stroke: none; stroke-width: 0; stroke-dasharray: none; stroke-linecap: butt; stroke-linejoin: miter; stroke-miterlimit: 4; fill: #000000; fill-rule: ; opacity: 1;">e</tspan><tspan x="-14.07" y="8.98" style="stroke: none; stroke-width: 0; stroke-dasharray: none; stroke-linecap: butt; stroke-linejoin: miter; stroke-miterlimit: 4; fill: #000000; fill-rule: ; opacity: 1;">r</tspan><tspan x="2.72" y="8.98" style="stroke: none; stroke-width: 0; stroke-dasharray: none; stroke-linecap: butt; stroke-linejoin: miter; stroke-miterlimit: 4; fill: #000000; fill-rule: ; opacity: 1;">r</tspan><tspan x="19.51" y="8.98" style="stroke: none; stroke-width: 0; stroke-dasharray: none; stroke-linecap: butt; stroke-linejoin: miter; stroke-miterlimit: 4; fill: #000000; fill-rule: ; opacity: 1;">e</tspan><tspan x="39.03" y="8.98" style="stroke: none; stroke-width: 0; stroke-dasharray: none; stroke-linecap: butt; stroke-linejoin: miter; stroke-miterlimit: 4; fill: #000000; fill-rule: ; opacity: 1;">i</tspan><tspan x="47.94" y="8.98" style="stroke: none; stroke-width: 0; stroke-dasharray: none; stroke-linecap: butt; stroke-linejoin: miter; stroke-miterlimit: 4; fill: #000000; fill-rule: ; opacity: 1;">c</tspan><tspan x="67.46" y="8.98" style="stroke: none; stroke-width: 0; stroke-dasharray: none; stroke-linecap: butt; stroke-linejoin: miter; stroke-miterlimit: 4; fill: #000000; fill-rule: ; opacity: 1;">h</tspan></text>
 </g>
<g style="stroke: none; stroke-width: 1; stroke-dasharray: none; stroke-linecap: butt; stroke-linejoin: miter; stroke-miterlimit: 10; fill: none; fill-rule: nonzero; opacity: 1;" transform="translate(286.77 10) scale(0.54 0.54)" >
  <path d="M 187.726 52.378 c 0.157 -2.251 0.171 -4.753 -0.088 -7.365 c -0.688 -6.952 -3.866 -15.609 -3.866 -15.609 l -7.826 -24.596 l -0.836 -0.109 l -0.002 -0.01 L 139.266 0 L 116.46 7.85 l 0.103 3.73 l -3.227 -0.405 L 57.47 30.449 v 35.264 l 6.216 -0.105 c -0.045 0.379 -0.07 0.767 -0.07 1.166 c 0 3.612 1.858 6.542 4.147 6.542 h 3.872 c 1.366 0 2.575 -1.049 3.33 -2.658 c 0.847 1.769 2.188 2.913 3.703 2.913 h 4.317 c 2.56 0 4.632 -3.27 4.632 -7.306 c 0 -0.361 -0.016 -0.718 -0.049 -1.066 l 6.646 -0.113 c -0.058 0.488 -0.09 0.995 -0.09 1.514 c 0 4.033 1.858 7.302 4.147 7.302 h 3.868 c 1.52 0 2.847 -1.438 3.567 -3.584 c 0.851 1.953 2.088 3.184 3.463 3.184 h 4.319 c 2.476 0 4.498 -3.97 4.625 -8.965 l 0.733 -0.004 l 0.003 0.123 l 10.206 -0.044 c 0.272 5.474 3.175 9.783 6.718 9.783 h 6.543 c 3.62 0 6.576 -4.51 6.733 -10.162 l 9.93 -0.511 c 0.504 5.083 3.291 8.973 6.656 8.973 h 6.544 c 3.477 0 6.339 -4.153 6.698 -9.485 l 11.082 -0.882 l 0.092 -8.832 L 187.726 52.378 z M 122.727 29.735 l -1.179 -19.968 l 17.497 -5.069 l 4.25 21.912 L 122.727 29.735 z M 147.055 26.119 l -4.25 -22.238 l 31.068 3.76 l 6.214 19.95 L 147.055 26.119 z" style="stroke: none; stroke-width: 1; stroke-dasharray: none; stroke-linecap: butt; stroke-linejoin: miter; stroke-miterlimit: 10; fill: #ff0000; fill-rule: nonzero; opacity: 1;" transform=" matrix(1 0 0 1 0 0) " stroke-linecap="round" />
  <path d="M 2.616 49.203 l 51.889 -9.931 v -7.556 L 2.616 49.203 z M 54.505 53.365 v -8.043 L 2.179 58.626 L 54.505 53.365 z M 54.505 65.705 v -6.703 L 0 67.271 L 54.505 65.705 z" style="stroke: none; stroke-width: 1; stroke-dasharray: none; stroke-linecap: butt; stroke-linejoin: miter; stroke-miterlimit: 10; fill: #000000; fill-rule: nonzero; opacity: 1;" transform=" matrix(1 0 0 1 0 0) " stroke-linecap="round" />
</g>
</svg>